Coordinates
version=1
nRows=27
nColumns=19
inDegrees=yes

Units are S.I. units (second, meters, Newtons, ...)
If the header above contains a line with 'inDegrees', this indicates whether rotational values are in degrees (yes) or radians (no).

endheader
time	pelvis_tilt	pelvis_list	pelvis_rotation	pelvis_tx	pelvis_ty	pelvis_tz	hip_flexion_r	hip_adduction_r	hip_rotation_r	knee_angle_r	knee_angle_r_beta	ankle_angle_r	hip_flexion_l	hip_adduction_l	hip_rotation_l	knee_angle_l	knee_angle_l_beta	ankle_angle_l
     16.44666667	      3.46244919	     12.36834718	      3.69523665	      2.29058734	      0.97325375	      0.99081883	    -18.03489293	    -15.30339081	    -12.94213348	     78.12290268	      1.36350187	     -7.73742871	     17.79904287	     14.71442261	    -15.00847769	     12.77819008	      0.22302149	     -2.98534715
     16.45333333	      3.25956489	     12.74764964	      3.89820747	      2.28828291	      0.96924653	      0.99003573	    -15.82274718	    -16.17773595	    -12.28250094	     82.57908197	      1.44127687	     -6.95848517	     17.74973130	     15.26584077	    -15.65115405	     14.07945544	      0.24573285	     -2.88327199
     16.46000000	      3.23387234	     13.11167375	      4.16918191	      2.28592791	      0.96529312	      0.98962043	    -13.73770057	    -16.90710694	    -11.59445771	     86.75847096	      1.51422097	     -6.20210678	     17.57988412	     15.70821381	    -16.08552706	     15.94314216	      0.27826032	     -2.36355998
     16.46666667	      2.96517927	     13.31956484	      4.41370187	      2.28318866	      0.96098474	      0.98949732	    -11.09772781	    -17.45348893	    -10.59249429	     90.86264430	      1.58585231	     -5.62230348	     17.76268053	     15.89720851	    -16.39439845	     18.27854784	      0.31902084	     -1.33985284
     16.47333333	      2.67541185	     13.41065571	      4.64400857	      2.28043599	      0.95667014	      0.98979475	     -8.26596995	    -17.78540431	     -9.43167227	     94.69429659	      1.65272726	     -5.23675836	     17.99736670	     15.86820354	    -16.55721198	     20.99967896	      0.36651354	      0.13691968
     16.48000000	      2.34685645	     13.36292561	      4.85238153	      2.27754910	      0.95236405	      0.99043231	     -5.19800802	    -17.91575643	     -8.14339477	     98.26831137	      1.71510558	     -4.99287574	     18.26521103	     15.62947809	    -16.52791859	     23.95541217	      0.41810082	      2.02557260
     16.48666667	      2.14205576	     13.16021270	      4.98333586	      2.27459188	      0.94834539	      0.99145378	     -2.08633587	    -17.80266942	     -6.75984297	    101.51434516	      1.77175956	     -4.90319226	     18.32258102	     15.18106506	    -16.26203798	     26.96337783	      0.47059972	      4.29563273
     16.49333333	      1.93857718	     12.85808838	      5.09636359	      2.27152383	      0.94452853	      0.99267261	      1.16755397	    -17.55682662	     -5.37098707	    104.43437131	      1.82272363	     -4.85805361	     18.26281374	     14.62429275	    -15.76773088	     29.89179468	      0.52171024	      6.77751118
     16.50000000	      2.70175355	     12.88196347	      5.20291899	      2.26868121	      0.94198652	      0.99386906	      3.20277590	    -17.71418834	     -4.37665279	    106.79991870	      1.86401022	     -4.76514062	     16.80029708	     14.44321758	    -14.92214492	     32.30859075	      0.56389129	      9.46790463
     16.50666667	      2.00747478	     11.90899827	      5.12856611	      2.26519996	      0.93848225	      0.99557436	      7.48491904	    -16.54700635	     -2.70042720	    109.06715402	      1.90358094	     -4.82855521	     17.11050385	     13.12829856	    -14.29526112	     35.00329303	      0.61092271	     12.02713931
     16.51333333	      2.59565660	     11.45837288	      5.05178556	      2.26210169	      0.93673266	      0.99702267	     10.04618438	    -16.04752404	     -1.57021902	    110.67562374	      1.93165404	     -4.69074923	     15.54672860	     12.41199999	    -13.38417540	     36.87880946	      0.64365665	     14.57097965
     16.52000000	      2.47813941	     10.70874677	      4.94343788	      2.25881037	      0.93473452	      0.99845058	     13.58124864	    -15.15610860	     -0.31852200	    111.99268326	      1.95464106	     -4.65671137	     14.66304588	     11.38350836	    -12.61343585	     38.55539567	      0.67291860	     16.79187476
     16.52666667	      3.09794378	     10.04679529	      4.77266576	      2.25575291	      0.93412821	      0.99970554	     16.13379482	    -14.33965772	      0.65448855	    112.71747062	      1.96729099	     -4.43541281	     12.64704416	     10.43521775	    -11.81359509	     39.61214452	      0.69136235	     18.74583473
     16.53333333	      3.53873568	      9.32986593	      4.59759148	      2.25282303	      0.93386801	      1.00072342	     18.83275308	    -13.46598627	      1.53557370	    113.02584524	      1.97267314	     -4.17116672	     10.63280011	      9.44309244	    -11.15013485	     40.28157394	      0.70304609	     20.27190375
     16.54000000	      3.87235379	      8.83490886	      4.61222199	      2.25016791	      0.93404916	      1.00119784	     21.44391940	    -12.95721238	      2.19122626	    112.91473981	      1.97073398	     -3.77118624	      8.45965130	      8.81964150	    -10.27600221	     40.43006360	      0.70563773	     21.28721988
     16.54666667	      4.22253617	      7.89296285	      4.30485792	      2.24783877	      0.93473433	      1.00177980	     23.98540832	    -11.77131462	      2.85271159	    112.33795031	      1.96066711	     -3.35743702	      6.18023439	      7.55084125	    -10.14236073	     40.37998019	      0.70476361	     21.95906438
     16.55333333	      4.21299394	      7.31339591	      4.38559398	      2.24598010	      0.93557540	      1.00152067	     26.60377069	    -11.27337290	      3.18995035	    111.39289224	      1.94417273	     -2.82439119	      4.04237164	      6.88769369	     -9.53378105	     39.86921854	      0.69584913	     21.96456577
     16.56000000	      4.50184937	      6.43488571	      4.11423574	      2.24451131	      0.93714629	      1.00151117	     28.75103703	    -10.22819508	      3.53426449	    110.01359813	      1.92009951	     -2.24208386	      1.47884969	      5.79512288	     -9.54084212	     39.11058164	      0.68260842	     21.57958672
     16.56666667	      4.73268238	      5.73605978	      4.13267215	      2.24366787	      0.93922387	      1.00089136	     30.59248012	     -9.64220375	      3.51161943	    108.23475903	      1.88905291	     -1.55947977	     -1.22912857	      5.01153551	     -9.20210460	     37.93562371	      0.66210154	     20.58138611
     16.57333333	      4.07647551	      5.12071775	      4.32772828	      2.24342287	      0.94067048	      0.99992843	     33.20989550	     -9.32841892	      3.35286725	    106.22871262	      1.85404080	     -0.88806496	     -2.99854456	      4.37450261	     -8.85777614	     36.70892210	      0.64069156	     19.06260949
     16.58000000	      4.26427550	      4.31615885	      4.31451753	      2.24376404	      0.94352687	      0.99909013	     34.56231976	     -8.71385980	      2.99413993	    103.74017087	      1.81060755	     -0.09435192	     -5.82886065	      3.47217764	     -8.75583041	     35.08070277	      0.61227377	     16.92306285
     16.58666667	      3.79503980	      3.57760938	      4.41284987	      2.24474216	      0.94597128	      0.99809679	     36.40995571	     -8.33873483	      2.47849848	    101.02671865	      1.76324887	      0.69003428	     -7.95635447	      2.68005020	     -8.62440991	     33.37401673	      0.58248648	     14.33919529
     16.59333333	      3.25186958	      2.84528124	      4.54934227	      2.24628893	      0.94866224	      0.99707117	     38.06159969	     -8.09269759	      1.73878220	     98.01879895	      1.71075077	      1.51993870	    -10.00806852	      1.86893521	     -8.54010329	     31.53893589	      0.55045827	     11.24792150
     16.60000000	      2.60066749	      2.09012655	      4.62050450	      2.24841451	      0.95145768	      0.99619298	     39.57392350	     -7.84637653	      0.86429634	     94.74628118	      1.65363456	      2.37746201	    -11.93491423	      1.02585708	     -8.58955906	     29.60389380	      0.51668542	      7.72734312
     16.60666667	      1.93090914	      1.32115204	      4.68784524	      2.25098437	      0.95442914	      0.99534453	     40.84423651	     -7.68325968	     -0.24006681	     91.21387179	      1.59198239	      3.23080966	    -13.77421686	      0.13928063	     -8.73794090	     27.65121773	      0.48260479	      3.84493261
     16.61333333	      1.25787457	      0.55178575	      4.65512156	      2.25396338	      0.95748199	      0.99471643	     41.88001867	     -7.48853492	     -1.45652994	     87.46198039	      1.52649953	      4.09984898	    -15.54669579	     -0.74879208	     -9.05545580	     25.69193336	      0.44840883	     -0.25994278
     16.62000000	     -0.35375603	      0.07350510	      4.59605682	      2.25715672	      0.95944000	      0.99433715	     43.80777444	     -7.61946092	     -2.58177428	     83.65194110	      1.46000180	      4.81775305	    -16.07977627	     -1.29819349	     -9.35699537	     24.09553051	      0.42054634	     -4.44872980
